<?xml version="1.0" ?><!DOCTYPE svg  PUBLIC '-//W3C//DTD SVG 1.1//EN'  'http://www.w3.org/Graphics/SVG/1.1/DTD/svg11.dtd'><svg height="512px" style="enable-background:new 0 0 512 512;" version="1.1" viewBox="0 0 512 512" width="512px" xml:space="preserve" xmlns="http://www.w3.org/2000/svg" xmlns:xlink="http://www.w3.org/1999/xlink"><g id="pintrest__x2C_"><g><path d="M492.871,374.948c0,65.451-53.089,118.502-118.585,118.502H137.149    c-65.477,0-118.546-53.051-118.546-118.502V138.009c0-65.451,53.069-118.483,118.546-118.483h237.137    c65.496,0,118.585,53.032,118.585,118.483V374.948z" style="fill:#fff;"/><path d="M188.061,402.716c0.271,2.024,2.972,2.508,4.188,0.983c1.737-2.179,24.142-28.945,31.764-55.674    c2.161-7.579,12.371-46.764,12.371-46.764c6.117,11.281,23.988,21.193,42.996,21.193c56.562,0,94.927-49.851,94.927-116.611    c0-50.467-44.211-97.462-111.407-97.462c-83.575,0-125.73,57.968-125.73,106.275c0,29.254,11.462,55.287,36.019,65.025    c4.043,1.581,7.652,0.058,8.81-4.262c0.82-3.009,2.731-10.529,3.609-13.673c1.158-4.262,0.714-5.745-2.527-9.487    c-7.102-8.061-11.627-18.551-11.627-33.361c0-43.004,33.283-81.476,86.622-81.476c47.241,0,73.218,27.904,73.218,65.181    c0,49.078-22.463,90.48-55.771,90.48c-18.411,0-32.209-14.714-27.791-32.764c5.307-21.56,15.554-44.815,15.554-60.378    c0-13.924-7.738-25.533-23.736-25.533c-18.816,0-33.945,18.803-33.945,44.026c0,16.063,5.635,26.94,5.635,26.94    s-19.259,78.872-22.637,92.698C181.881,365.594,187.579,399.321,188.061,402.716z" style="fill:#000000;"/><path d="M188.061,402.716c0.271,2.024,2.972,2.508,4.188,0.983c1.737-2.179,24.142-28.945,31.764-55.674    c2.161-7.579,12.371-46.764,12.371-46.764c6.117,11.281,23.988,21.193,42.996,21.193c56.562,0,94.927-49.851,94.927-116.611    c0-50.467-44.211-97.462-111.407-97.462c-83.575,0-125.73,57.968-125.73,106.275c0,29.254,11.462,55.287,36.019,65.025    c4.043,1.581,7.652,0.058,8.81-4.262c0.82-3.009,2.731-10.529,3.609-13.673c1.158-4.262,0.714-5.745-2.527-9.487    c-7.102-8.061-11.627-18.551-11.627-33.361c0-43.004,33.283-81.476,86.622-81.476c47.241,0,73.218,27.904,73.218,65.181    c0,49.078-22.463,90.48-55.771,90.48c-18.411,0-32.209-14.714-27.791-32.764c5.307-21.56,15.554-44.815,15.554-60.378    c0-13.924-7.738-25.533-23.736-25.533c-18.816,0-33.945,18.803-33.945,44.026c0,16.063,5.635,26.94,5.635,26.94    s-19.259,78.872-22.637,92.698C181.881,365.594,187.579,399.321,188.061,402.716z" style="fill:#000000;"/><path d="M262.898,108.382c67.196,0,111.407,46.995,111.407,97.462c0,66.761-38.365,116.611-94.927,116.611    c-19.008,0-36.878-9.912-42.996-21.193c0,0-10.209,39.185-12.371,46.764c-7.622,26.729-30.027,53.495-31.764,55.674    c-0.484,0.606-1.203,0.896-1.911,0.896c-1.07,0-2.114-0.66-2.277-1.879c-0.482-3.395-6.18-37.122,0.541-64.641    c3.377-13.826,22.637-92.698,22.637-92.698s-5.635-10.877-5.635-26.94c0-25.224,15.129-44.026,33.945-44.026    c15.998,0,23.736,11.609,23.736,25.533c0,15.563-10.247,38.818-15.554,60.378c-4.419,18.05,9.379,32.764,27.791,32.764    c33.308,0,55.771-41.402,55.771-90.48c0-37.276-25.977-65.181-73.218-65.181c-53.339,0-86.622,38.472-86.622,81.476    c0,14.811,4.525,25.301,11.627,33.361c3.242,3.742,3.685,5.226,2.527,9.487c-0.878,3.144-2.789,10.664-3.609,13.673    c-0.859,3.205-3.068,4.871-5.802,4.871c-0.95,0-1.964-0.201-3.007-0.609c-24.557-9.738-36.019-35.771-36.019-65.025    C137.168,166.35,179.324,108.382,262.898,108.382 M262.898,98.505c-51.603,0-83.468,20.577-101.113,37.839    c-21.922,21.446-34.495,49.99-34.495,78.313c0,16.6,3.43,31.952,9.92,44.397c7.305,14.01,18.486,24.317,32.335,29.81    c2.229,0.871,4.451,1.305,6.648,1.305c7.335,0,13.357-4.785,15.343-12.191c0.365-1.34,0.944-3.564,1.557-5.919    c0.73-2.803,1.557-5.98,2.024-7.654c0.006-0.021,0.012-0.045,0.019-0.067c2.29-8.43,0.05-13.183-4.594-18.543    c-0.018-0.021-0.036-0.042-0.055-0.063c-6.25-7.093-9.161-15.619-9.161-26.832c0-35.58,26.361-71.599,76.745-71.599    c39.07,0,63.341,21.191,63.341,55.304c0,22.56-4.977,43.373-14.013,58.605c-5.953,10.035-16.316,21.998-31.881,21.998    c-6.454,0-12.128-2.514-15.566-6.896c-2.977-3.793-3.887-8.511-2.631-13.643c1.832-7.442,4.346-15.303,6.777-22.905    c4.659-14.571,9.061-28.335,9.061-39.821c0-9.606-2.839-18.035-8.21-24.374c-4.267-5.035-12.137-11.037-25.403-11.037    c-12.279,0-23.577,5.807-31.813,16.352c-7.744,9.915-12.009,23.251-12.009,37.552c0,12.863,3.107,22.774,5.123,27.849    c-3.663,15-18.876,77.305-21.842,89.446c-5.95,24.365-3.07,52.879-0.824,67.707c0.042,0.279,0.075,0.497,0.097,0.649    c0.836,6.021,5.897,10.384,12.058,10.384c3.783,0,7.294-1.682,9.632-4.613l0.307-0.38c7.638-9.405,26.166-33.959,33.234-58.744    c1.232-4.321,4.946-18.396,7.998-30.033c10.349,7.166,24.124,11.631,37.87,11.631c30.165,0,57.292-13.131,76.384-36.974    c18.327-22.888,28.42-54.678,28.42-89.515c0-13.951-2.972-27.605-8.833-40.584c-5.812-12.867-14.165-24.411-24.829-34.311    C327.982,110.027,296.864,98.505,262.898,98.505L262.898,98.505z" style="fill:#fff;"/><path d="M364.039,478.061H147.415c-62.448,0-113.253-50.818-113.253-113.283V148.179    c0-62.454,50.805-113.263,113.253-113.263h216.624c62.459,0,113.272,50.81,113.272,113.263v216.599    C477.312,427.242,426.498,478.061,364.039,478.061z M147.415,44.818c-56.988,0-103.351,46.367-103.351,103.36v216.599    c0,57.004,46.363,103.381,103.351,103.381h216.624c56.998,0,103.37-46.377,103.37-103.381V148.179    c0-56.993-46.372-103.36-103.37-103.36H147.415z" style="fill:#fff;"/></g></g><g id="Layer_1"/></svg>